<svg xmlns="http://www.w3.org/2000/svg" width="147" height="47" fill="none"><path d="M37.333 21.671V9.227h2.724V21.67h-2.724ZM52.01 9.227h2.723V21.67h-3.896l-5.485-8.926h-.302v8.926h-2.724V9.227h3.896l5.447 8.927h.303l.038-8.927ZM56.322 9.227h12.104v2.458h-4.69v9.986h-2.724v-9.986h-4.69V9.227ZM80.303 9.227v2.458h-7.528v2.535h7.528v2.458h-7.528v2.535h7.528v2.496h-10.25V9.227h10.25ZM91.423 16.905l2.383 4.766h-2.95l-2.005-4.16h-3.555v4.16h-2.724V9.227h6.09c1.513 0 4.842 0 4.842 4.16 0 2.157-.946 2.951-2.08 3.518Zm-.454-3.517c0-1.74-1.626-1.74-2.458-1.74h-3.215v3.48h3.177c.757 0 2.496 0 2.496-1.74ZM48.227 31.695c0 4.653-4.123 4.463-5.333 4.463h-2.875v3.48h-2.723V27.194h5.598c1.513.038 5.333.038 5.333 4.501Zm-2.534 0c0-2.156-1.74-2.156-2.648-2.156H40.02v4.274h2.988c.719.038 2.686.152 2.686-2.118ZM58.818 34.872l2.383 4.766h-2.95l-2.005-4.16H52.69v4.16h-2.723V27.194h6.09c1.513 0 4.841 0 4.841 4.16 0 2.194-.945 2.951-2.08 3.518Zm-.416-3.517c0-1.74-1.626-1.74-2.496-1.74H52.69v3.48h3.178c.794 0 2.534.037 2.534-1.74ZM75.461 33.36c0 4.085-2.761 6.316-6.392 6.316-3.632 0-6.393-2.156-6.393-6.316 0-4.085 2.761-6.317 6.393-6.317 3.63 0 6.392 2.194 6.392 6.317Zm-2.648 0c0-2.421-1.588-3.556-3.744-3.556s-3.745 1.097-3.745 3.556c0 2.458 1.589 3.555 3.745 3.555s3.744-1.172 3.744-3.555ZM76.71 27.232h12.103v2.459h-4.69v9.985H81.4v-9.985h-4.69v-2.46ZM102.809 33.36c0 4.085-2.761 6.316-6.393 6.316-3.63 0-6.392-2.156-6.392-6.316 0-4.085 2.761-6.317 6.392-6.317 3.632 0 6.393 2.194 6.393 6.317Zm-2.648 0c0-2.421-1.589-3.556-3.745-3.556s-3.744 1.097-3.744 3.556c0 2.458 1.588 3.555 3.744 3.555s3.745-1.172 3.745-3.555ZM114.081 34.948h2.837c-.227 2.8-2.648 4.728-6.128 4.728-3.594 0-6.317-2.156-6.317-6.316 0-4.085 2.723-6.317 6.317-6.317 3.48 0 5.976 2.08 6.128 4.728h-2.8c-.378-1.324-1.323-1.967-3.328-1.967-2.118 0-3.594 1.097-3.594 3.556 0 2.458 1.476 3.555 3.594 3.555s2.95-.756 3.291-1.967ZM131.253 33.36c0 4.085-2.761 6.316-6.392 6.316-3.631 0-6.393-2.156-6.393-6.316 0-4.085 2.762-6.317 6.393-6.317s6.392 2.194 6.392 6.317Zm-2.647 0c0-2.421-1.589-3.556-3.745-3.556s-3.745 1.097-3.745 3.556c0 2.458 1.589 3.555 3.745 3.555s3.745-1.172 3.745-3.555ZM135.944 37.218h7.527v2.458H133.22V27.232h2.724v9.986ZM141.92 27.346H144v.416h-.794v1.74h-.454v-1.74h-.794l-.038-.416ZM146.989 27.346v2.156h-.454v-1.59h-.038l-.416 1.59h-.681l-.416-1.59h-.038v1.59h-.492v-2.156h.795l.416 1.702h.038l.416-1.702h.87ZM24.397 23.676c-.227-.794-1.059-1.286-1.853-1.059-.227.076-.454.19-.605.34l-.038.038c-.416.379-.605.984-.416 1.551.227.832.378 1.702.34 2.535v6.77c0 4.88-3.593 9.116-8.473 9.608-5.144.492-9.72-3.29-10.213-8.435-.037-.303-.037-.568-.037-.87v-6.847c0-4.614 3.215-8.661 7.754-9.418a9.073 9.073 0 0 1 5.106.567c.53.227 1.135.114 1.551-.264l.038-.038c.643-.567.68-1.513.151-2.118a1.162 1.162 0 0 0-.567-.379c-2.005-.832-4.237-1.134-6.393-.832C4.54 15.657 0 21.142 0 27.383v6.468c0 6.96 5.674 12.86 12.634 12.747 6.77-.113 12.217-5.636 12.217-12.406V27.08a12.95 12.95 0 0 0-.454-3.405Zm-21.409-7.11c.454-.417.605-.984.454-1.552a9.316 9.316 0 0 1-.227-4.085c.832-5.106 5.674-8.548 10.78-7.716 5.107.832 8.549 5.674 7.717 10.78-.681 4.123-4.048 7.3-8.208 7.792a9.025 9.025 0 0 1-4.577-.643 1.456 1.456 0 0 0-1.551.265h-.038a1.502 1.502 0 0 0-.151 2.118c.151.19.34.303.567.378a12.118 12.118 0 0 0 6.847.757A12.464 12.464 0 0 0 24.7 10.248C23.527 3.478 17.06-.986 10.288.187 3.518 1.397-.983 7.827.227 14.598c.076.416.19.87.303 1.286.227.795 1.096 1.249 1.89 1.022.19-.076.38-.19.568-.34Z" fill="#000"/></svg>